{"title":"Wyvern-AC3-5,1-DVDRip[Eng]2009","uid":5105233,"size":1468551615,"categoryP":"video","categoryS":"movies","magnet":"?xt=urn:btih:7dd30782ae795f6dd358bdd087e57d1a33e9591d&amp;dn=Wyvern-AC3-5%2C1-DVDRip%5BEng%5D2009&amp;tr=udp%3A%2F%2Ftracker.openbittorrent.com%3A80&amp;tr=udp%3A%2F%2Fopen.demonii.com%3A1337&amp;tr=udp%3A%2F%2Ftracker.coppersurfer.tk%3A6969&amp;tr=udp%3A%2F%2Fexodus.desync.com%3A6969","seeders":0,"leechers":1,"uploader":"FatFreddy31","files":-1,"time":1254318414,"description":" &lt;a href=&quot;http://www.imdb.com/title/tt1331335/&quot; rel=&quot;nofollow&quot; target=&quot;_NEW&quot;&gt;http://www.imdb.com/title/tt1331335/&lt;/a&gt;\n\nUser Rating:5.3/10 - 364 votes\n\nSci-Fi \n\nDirector:Steven R. Monroe\n\nCast:Nick Chinlund/Erin Karpluk/Barry Corbin, and others.\n\nPlot:\nThe resident of a small Alaska town that finds itself under attack by a flying dragon, known in medieval mythology as a wyvern. It has thawed from its ancient slumber by melting icecaps caused by global warming...\n\nInfo:\n\nGeneral\nComplete name                    : Wyvern-AC3-5,1-DVDRip[Eng]2009.avi\nFormat                           : AVI\nFormat/Info                      : Audio Video Interleave\nFile size                        : 1.37 GiB\nDuration                         : 1h 28mn\nOverall bit rate                 : 2 211 Kbps\nWriting application              : VirtualDubMod 1.5.4.1 (build 2178/release)\nWriting library                  : VirtualDubMod build 2178/release\n\nVideo\nFormat                           : MPEG-4 Visual\nFormat profile                   : Streaming Video@L1\nFormat settings, BVOP            : Yes\nFormat settings, QPel            : No\nFormat settings, GMC             : No warppoints\nFormat settings, Matrix          : Custom\nCodec ID                         : XVID\nCodec ID/Hint                    : XviD\nDuration                         : 1h 28mn\nBit rate                         : 1 757 Kbps\nWidth                            : 688 pixels\nHeight                           : 384 pixels\nDisplay aspect ratio             : 16/9\nFrame rate                       : 23.976 fps\nResolution                       : 24 bits\nColorimetry                      : 4:2:0\nScan type                        : Progressive\nBits/(Pixel*Frame)               : 0.277\nStream size                      : 1.09 GiB (79%)\nWriting library                  : XviD 50\n\nAudio\nFormat                           : AC-3\nFormat/Info                      : Audio Coding 3\nCodec ID                         : 2000\nDuration                         : 1h 28mn\nBit rate mode                    : Constant\nBit rate                         : 448 Kbps\nChannel(s)                       : 6 channels\nChannel positions                : Front: L C R, Surround: L R, LFE\nSampling rate                    : 48.0 KHz\nStream size                      : 284 MiB (20%)\nAlignment                        : Split accross interleaves\nInterleave, duration             : 96 ms (2.30 video frames)\nInterleave, preload duration     : 96 ms\n\nEnjoy...","torrent":{"xt":"urn:btih:7dd30782ae795f6dd358bdd087e57d1a33e9591d","amp;dn":"Wyvern-AC3-5%2C1-DVDRip%5BEng%5D2009","amp;tr":["udp%3A%2F%2Ftracker.openbittorrent.com%3A80","udp%3A%2F%2Fopen.demonii.com%3A1337","udp%3A%2F%2Ftracker.coppersurfer.tk%3A6969","udp%3A%2F%2Fexodus.desync.com%3A6969"],"infoHash":"7dd30782ae795f6dd358bdd087e57d1a33e9591d","infoHashBuffer":{"type":"Buffer","data":[125,211,7,130,174,121,95,109,211,88,189,208,135,229,125,26,51,233,89,29]},"announce":[],"urlList":[]}}